<svg xmlns="http://www.w3.org/2000/svg" width="1254" height="1254" aria-label="Broom sweeping dust icon" viewBox="0 0 1254 1254"><path fill="#202424" fill-rule="evenodd" d="m529 203-46 1-23 16-13 22-3 314-88 18-22 13-24 32-6 32 12 60-10 73-30 106-42 74 10 17h269l9-9-8-18-41-2 45-102 11-49-11-15-16 6-28 99-39 59-62 2 29-55 22-74 3-29-17-8-10 9-26 96-30 52-14 10-53-1 42-101 25-135 342-1 17-25 7-57-19-41-33-20-88-17V255l-14-33Zm14 753 1 17 9 8h448l10-10 7-27 3-24-1-25-9-33-15-26-20-21-19-13-26-11-26-5-29 1-34 9-14-21-30-25-36-13-36-1-25 6-19 9-30 26-13 20-9 23-3 34-28 12-28 23-21 35Zm29-6 5-18 13-22 16-15 16-9 23-6h22l21 5 19 10h10l7-5 2-13-9-10-35-13-26-2-2-4 7-32 12-20 14-14 16-10 28-8 31 2 24 10 21 18 11 17 4 12 8 7h10l26-12 23-4 26 2 27 10 16 11 15 16 10 16 9 30v29l-6 25H573ZM333 641l4-13 7-11 12-11 18-8 42-9 39-5 98-1 59 7 31 7 17 6 13 12 6 11 4 24-3 19-7 18H342l-9-27Zm169-413h11l14 6 9 9 6 16v293l-2 2h-67l-1-294 2-9 5-9 10-9Zm383 443h-6l-10 4-6 6-3 7v10l4 9 7 6 10 3 7-1 8-4 5-6 3-8v-7l-4-10-5-5Zm-58-67-9 6-5 9 1 15 3 5 9 7 3 1 14-1 4-2 8-9 2-7-1-10-4-7-4-4-9-4Zm162 68-7 4-6 8-2 7v5l2 7 4 6 10 6 15-1 4-2 6-6 3-7-1-14-2-4-9-8-7-2Z"/></svg>
