<svg xmlns="http://www.w3.org/2000/svg" viewBox="0 0 16 16">
  <path d="M6.67 1.2h2.66l.38 1.6c.32.11.62.24.91.42l1.41-.86 1.88 1.88-.86 1.41c.18.29.31.59.42.91l1.6.38v2.66l-1.6.38c-.11.32-.24.62-.42.91l.86 1.41-1.88 1.88-1.41-.86c-.29.18-.59.31-.91.42l-.38 1.6H6.67l-.38-1.6a5.4 5.4 0 0 1-.91-.42l-1.41.86-1.88-1.88.86-1.41a5.4 5.4 0 0 1-.42-.91l-1.6-.38V6.94l1.6-.38c.11-.32.24-.62.42-.91l-.86-1.41 1.88-1.88 1.41.86c.29-.18.59-.31.91-.42l.38-1.6Z" fill="none" stroke="currentColor" stroke-width="1.25" stroke-linejoin="round"/>
  <circle cx="8" cy="8" r="2.5" fill="none" stroke="currentColor" stroke-width="1.25"/>
</svg>
